<svg enable-background="new 0 0 288.6 101" viewBox="0 0 288.6 101" xmlns="http://www.w3.org/2000/svg"><g fill="#54565a"><path d="m79.7 81.1v-1.3c.2 0 .4 0 .6-.1h.4.2v-6.8h-2.2l-.1 1.3h-1.3v-2.9h9.1v2.9h-1.3l-.1-1.3h-2.1v6.8h.2c.3 0 .7.1 1 .1v1.3z"/><path d="m95.6 81.3c-2.4 0-3.7-1.3-3.7-3.9v-2.4c0-2.6 1.3-3.9 3.7-3.9h1.4c2.4 0 3.6 1.3 3.6 3.9v2.3c0 2.5-1.3 3.9-3.6 3.9h-1.4zm.1-8.4c-1.3 0-1.9.7-1.9 2v2.8c0 1.4.5 1.9 1.9 1.9h1c1.3 0 1.9-.6 1.9-1.9v-2.8c0-1.4-.5-2-1.9-2z"/><path d="m108.5 81.1v-1.3c.2 0 .4 0 .6-.1h.4.2v-6.8h-2.2l-.1 1.3h-1.3v-2.9h9.1v2.9h-1.2l-.1-1.3h-2.1v6.8h.2c.3 0 .7.1 1 .1v1.3z"/><path d="m125.7 81.1v-1.3c.3 0 .5-.1.7-.1h.3l-.5-1.5h-3.2l-.3 1.5h.2c.2 0 .2 0 .3.1h.2v1.3h-3.9v-1.3c.4-.1.7-.1 1-.1h.1l2.2-6.9h-.3c-.2 0-.4-.1-.7-.1h-.1v-1.3h4.6l2.8 8.3h.1c.3 0 .7.1 1.1.1v1.3zm-1.3-8-1.1 3.5h2.6l-1.1-3.6h-.3z"/><path d="m135.6 81.1v-1.3c.4-.1.6-.1.8-.1h.2v-6.9h-.2c-.4 0-.6-.1-.9-.1v-1.3h4.5v1.3c-.4.1-.8.1-1.2.1h-.2v6.8h3.4l.3-1.5h1.2v3z"/><path d="m157 81.1v-1.3c.4-.1.7-.1.9-.1h.2v-6.8l-.5-.1c-.2 0-.4-.1-.6-.1v-1.3h5.1c2.4 0 3.3.8 3.3 2.7v.1c0 .9-.3 1.5-1 1.8l-.6.2.6.2c1 .3 1.2 1.3 1.2 2v.2c0 2-.8 2.6-3.2 2.6h-5.4zm3.1-1.5h1.8c1.3 0 1.6-.8 1.6-1.4v-.2c0-1-.8-1.1-1.6-1.1h-1.8zm0-4.1h1.8c.7 0 1.5-.1 1.5-1.1v-.2c0-.9-.2-1.3-1.3-1.3h-2z"/><path d="m175.4 81.3c-2.4 0-3.7-1.3-3.7-3.9v-2.4c0-2.6 1.3-3.9 3.7-3.9h1.4c2.4 0 3.6 1.3 3.6 3.9v2.3c0 2.5-1.3 3.9-3.6 3.9h-1.4zm.1-8.4c-1.3 0-1.9.7-1.9 2v2.8c0 1.4.5 1.9 1.9 1.9h1c1.3 0 1.9-.6 1.9-1.9v-2.8c0-1.4-.5-2-1.9-2z"/><path d="m186.1 81.1v-1.3c.2 0 .4-.1.5-.1s.2 0 .4-.1h.2v-6.8h-.2c-.3 0-.6-.1-.9-.1v-1.3h5.5c2.5 0 3.5 1.1 3.5 3.6v2.7c0 2.4-1.1 3.5-3.5 3.5h-5.5zm3.1-1.5h2.2c1.1 0 1.8-.6 1.8-1.7v-3.2c0-1.1-.7-1.8-1.8-1.8h-2.2z"/><path d="m203.1 81.1v-1.3c.3 0 .6-.1.8-.1h.2v-1.8l-2.9-5.1h-.1c-.2 0-.5-.1-.7-.1v-1.3h3.8v1.3c-.2 0-.4 0-.5 0h-.3l1.7 3.5h.4l1.7-3.5h-.3c-.2 0-.4 0-.6-.1v-1.3h3.8v1.3c-.3 0-.6.1-.9.1h-.1l-2.9 4.9v1.9h.2c.3 0 .6.1.9.1v1.3h-4.2z"/><path d="m223.4 81.1v-1.3c.3 0 .6-.1.8-.1h.2v-6.9h-.2c-.3 0-.6-.1-.9-.1v-1.3h8v2.7h-1.1l-.3-1.2h-3.5v2.9h3v1.7h-3v2.3h.2c.2 0 .5 0 .8.1.3 0 .6 0 .8.1v1.3h-4.8z"/><path d="m241.6 81.3c-2.5 0-3.6-1.2-3.6-3.8v-4.7h-.2c-.3 0-.6-.1-.9-.1v-1.3h4.2v1.3c-.3 0-.6.1-1 .1h-.2v5.1c0 1.1.7 1.9 1.8 1.9h.5c1.1 0 1.8-.7 1.8-1.9v-5.1h-.2c-.2 0-.5-.1-.7-.1v-1.3h3.6v1.3c-.1 0-.3 0-.4.1-.1 0-.2 0-.3 0h-.2v4.8c0 2.6-1.1 3.8-3.5 3.8h-.7z"/><path d="m252.4 81.1v-1.3c.3 0 .6-.1.8-.1h.2v-6.8l-.5-.1c-.2 0-.4 0-.6-.1v-1.3h7.9v2.7h-1.1l-.3-1.2h-3.4v2.6h2.5v1.5h-2.5v2.6h3.5l.3-1.2h1.1v2.7z"/><path d="m266.1 81.1v-1.3c.4-.1.6-.1.8-.1h.2v-6.9h-.2c-.3 0-.6-.1-.9-.1v-1.3h4.5v1.3c-.4.1-.8.1-1.2.1h-.2v6.8h3.4l.3-1.5h1.2v3z"/><path d="m281.9 66.5h-1.1v-.7h3v.7h-1.1v3.2h-.9v-3.2zm5.8 1.7c0-.5 0-1 0-1.6-.1.5-.3 1.1-.4 1.5l-.5 1.5h-.8l-.4-1.5c-.1-.5-.3-1-.4-1.5 0 .5 0 1.1-.1 1.6l-.1 1.5h-.8l.3-3.9h1.2l.4 1.3c.1.5.2.9.3 1.4.1-.5.2-1 .4-1.4l.4-1.3h1.2l.2 3.9h-.9z"/></g><path d="m136.4 32.5v6.8h21.4v7.9h-21.4v6.9h26.3v8.9h-38.5v-38.9h38.5v8.4z"/><path d="m169.7 24.1h12.2v38.9h-12.2z"/><path d="m201 36.3v14c0 1.4.6 3.8 4.4 3.8h12.3v-6.8h-7.1v-7.9h17.4v21.6c0 1.4-1.5 1.9-1.5 2-.3 0-14.6.3-24.8.3-8.9 0-12.9-5.2-12.9-10.3v-19c0-5.1 4-10.3 12.9-10.3 9.5 0 23.4.3 26.3.3v8.4h-22.7c-2.8.1-4.3 1.4-4.3 3.9z"/><path d="m276.1 24.1v38.9h-12.5l-14.9-19.8-1.5-2v21.8h-12.3v-38.9h12.5c1.5 2 12.8 16.6 15 19.9l1.4 1.9v-21.8z"/><path d="m108.7 50.3.8-.2c4.9-1.4 7.8-4.9 7.8-9.5v-6.4c0-4.7-3.4-10.1-13-10.1h-29v38.9h12.3v-12.3h8.2l9.2 12.3h13.2zm-3.5-11.4c0 1.5-.6 3.9-4.4 3.9h-13.2v-10.4h13.2c2.8 0 4.4 1.4 4.4 3.8z"/><path d="m19.3 21.9-19.4-15.6 3.9 24.4 30.1 6.1v-36.8z" fill="#98989a"/><path d="m3.7 32.8-3.8 44.2 17.8 12.6c-1.8-3.2-2.5-8.7-2.4-12.5v-17.2l6.6 2.9v-7l-6.7-3.8-4.5-5v-4l15.8 4.8v26.9s.3 13-5.4 17.3l12.8 9v-61.7z" fill="#98989a"/><path d="m44.3 15.5 23.7-9.2-19.4 15.6z" fill="#98989a"/><path d="m64.2 32.8 3.8 44.2-17.9 12.6c1.8-3.2 2.5-8.7 2.4-12.5v-17.2l-6.6 2.9v-7l6.7-3.8 4.5-5v-4l-15.8 4.8v26.9s-.3 13 5.4 17.3l-12.8 9v-61.7z" fill="#54565a"/><path d="m23.6 15.5-23.7-9.2 19.4 15.6z" fill="#54565a"/><path d="m48.6 21.9 19.4-15.6-3.9 24.4-30.2 6.1v-36.8z" fill="#54565a"/></svg>